<mxfile host="Electron" modified="2023-08-02T01:36:01.042Z" agent="Mozilla/5.0 (Windows NT 10.0; Win64; x64) AppleWebKit/537.36 (KHTML, like Gecko) draw.io/21.6.5 Chrome/114.0.5735.243 Electron/25.3.1 Safari/537.36" etag="Ad7RLgiYBQ7Hp4MFcpzV" version="21.6.5" type="device">
  <diagram name="Page-1" id="zMyaGib4h1bQaDOzh0KE">
    <mxGraphModel dx="1446" dy="710" grid="1" gridSize="10" guides="1" tooltips="1" connect="1" arrows="1" fold="1" page="1" pageScale="1" pageWidth="4681" pageHeight="3300" math="0" shadow="0">
      <root>
        <mxCell id="0" />
        <mxCell id="1" parent="0" />
        <mxCell id="c6Jfyy14F-gJlhO8VcOm-6" value="System" style="shape=umlLifeline;perimeter=lifelinePerimeter;whiteSpace=wrap;html=1;container=1;dropTarget=0;collapsible=0;recursiveResize=0;outlineConnect=0;portConstraint=eastwest;newEdgeStyle={&quot;edgeStyle&quot;:&quot;elbowEdgeStyle&quot;,&quot;elbow&quot;:&quot;vertical&quot;,&quot;curved&quot;:0,&quot;rounded&quot;:0};" parent="1" vertex="1">
          <mxGeometry x="200" y="88" width="200" height="660" as="geometry" />
        </mxCell>
        <mxCell id="c6Jfyy14F-gJlhO8VcOm-14" value="" style="html=1;points=[];perimeter=orthogonalPerimeter;outlineConnect=0;targetShapes=umlLifeline;portConstraint=eastwest;newEdgeStyle={&quot;edgeStyle&quot;:&quot;elbowEdgeStyle&quot;,&quot;elbow&quot;:&quot;vertical&quot;,&quot;curved&quot;:0,&quot;rounded&quot;:0};" parent="c6Jfyy14F-gJlhO8VcOm-6" vertex="1">
          <mxGeometry x="45" y="60" width="10" height="60" as="geometry" />
        </mxCell>
        <mxCell id="c6Jfyy14F-gJlhO8VcOm-31" value="" style="html=1;points=[];perimeter=orthogonalPerimeter;outlineConnect=0;targetShapes=umlLifeline;portConstraint=eastwest;newEdgeStyle={&quot;edgeStyle&quot;:&quot;elbowEdgeStyle&quot;,&quot;elbow&quot;:&quot;vertical&quot;,&quot;curved&quot;:0,&quot;rounded&quot;:0};" parent="c6Jfyy14F-gJlhO8VcOm-6" vertex="1">
          <mxGeometry x="45" y="156" width="10" height="44" as="geometry" />
        </mxCell>
        <mxCell id="c6Jfyy14F-gJlhO8VcOm-33" value="Login" style="html=1;verticalAlign=bottom;endArrow=block;edgeStyle=elbowEdgeStyle;elbow=vertical;curved=0;rounded=0;" parent="c6Jfyy14F-gJlhO8VcOm-6" edge="1">
          <mxGeometry width="80" relative="1" as="geometry">
            <mxPoint x="-35" y="157" as="sourcePoint" />
            <mxPoint x="45" y="157.2" as="targetPoint" />
          </mxGeometry>
        </mxCell>
        <mxCell id="c6Jfyy14F-gJlhO8VcOm-34" value="Verify&amp;nbsp;credentials" style="html=1;verticalAlign=bottom;endArrow=block;edgeStyle=elbowEdgeStyle;elbow=vertical;curved=0;rounded=0;" parent="c6Jfyy14F-gJlhO8VcOm-6" target="c6Jfyy14F-gJlhO8VcOm-7" edge="1">
          <mxGeometry width="80" relative="1" as="geometry">
            <mxPoint x="55" y="164" as="sourcePoint" />
            <mxPoint x="185" y="164" as="targetPoint" />
            <Array as="points">
              <mxPoint x="165" y="164" />
            </Array>
          </mxGeometry>
        </mxCell>
        <mxCell id="c6Jfyy14F-gJlhO8VcOm-35" value="" style="endArrow=blockThin;dashed=1;endFill=1;endSize=12;html=1;rounded=0;" parent="c6Jfyy14F-gJlhO8VcOm-6" source="c6Jfyy14F-gJlhO8VcOm-7" edge="1">
          <mxGeometry width="160" relative="1" as="geometry">
            <mxPoint x="185" y="200" as="sourcePoint" />
            <mxPoint x="-35" y="200" as="targetPoint" />
          </mxGeometry>
        </mxCell>
        <mxCell id="c6Jfyy14F-gJlhO8VcOm-58" value="" style="html=1;points=[];perimeter=orthogonalPerimeter;outlineConnect=0;targetShapes=umlLifeline;portConstraint=eastwest;newEdgeStyle={&quot;edgeStyle&quot;:&quot;elbowEdgeStyle&quot;,&quot;elbow&quot;:&quot;vertical&quot;,&quot;curved&quot;:0,&quot;rounded&quot;:0};" parent="c6Jfyy14F-gJlhO8VcOm-6" vertex="1">
          <mxGeometry x="50" y="462" width="10" height="44" as="geometry" />
        </mxCell>
        <mxCell id="c6Jfyy14F-gJlhO8VcOm-59" value="allocated trainer" style="html=1;verticalAlign=bottom;endArrow=block;edgeStyle=elbowEdgeStyle;elbow=vertical;curved=0;rounded=0;" parent="c6Jfyy14F-gJlhO8VcOm-6" edge="1">
          <mxGeometry width="80" relative="1" as="geometry">
            <mxPoint x="-30" y="463" as="sourcePoint" />
            <mxPoint x="50" y="463.20000000000005" as="targetPoint" />
          </mxGeometry>
        </mxCell>
        <mxCell id="c6Jfyy14F-gJlhO8VcOm-60" value="select plans" style="html=1;verticalAlign=bottom;endArrow=block;edgeStyle=elbowEdgeStyle;elbow=vertical;curved=0;rounded=0;" parent="c6Jfyy14F-gJlhO8VcOm-6" target="c6Jfyy14F-gJlhO8VcOm-7" edge="1">
          <mxGeometry width="80" relative="1" as="geometry">
            <mxPoint x="60" y="470" as="sourcePoint" />
            <mxPoint x="190" y="470" as="targetPoint" />
            <Array as="points">
              <mxPoint x="170" y="470" />
            </Array>
          </mxGeometry>
        </mxCell>
        <mxCell id="c6Jfyy14F-gJlhO8VcOm-61" value="" style="endArrow=blockThin;dashed=1;endFill=1;endSize=12;html=1;rounded=0;" parent="c6Jfyy14F-gJlhO8VcOm-6" source="c6Jfyy14F-gJlhO8VcOm-7" edge="1">
          <mxGeometry width="160" relative="1" as="geometry">
            <mxPoint x="190" y="506" as="sourcePoint" />
            <mxPoint x="-30" y="506" as="targetPoint" />
          </mxGeometry>
        </mxCell>
        <mxCell id="c6Jfyy14F-gJlhO8VcOm-62" value="&lt;span style=&quot;font-size: 11px;&quot;&gt;plan coonfirmation&lt;/span&gt;" style="text;strokeColor=none;align=center;fillColor=none;html=1;verticalAlign=middle;whiteSpace=wrap;rounded=0;" parent="c6Jfyy14F-gJlhO8VcOm-6" vertex="1">
          <mxGeometry x="65" y="476" width="110" height="30" as="geometry" />
        </mxCell>
        <mxCell id="c6Jfyy14F-gJlhO8VcOm-7" value="Database" style="shape=umlLifeline;perimeter=lifelinePerimeter;whiteSpace=wrap;html=1;container=1;dropTarget=0;collapsible=0;recursiveResize=0;outlineConnect=0;portConstraint=eastwest;newEdgeStyle={&quot;edgeStyle&quot;:&quot;elbowEdgeStyle&quot;,&quot;elbow&quot;:&quot;vertical&quot;,&quot;curved&quot;:0,&quot;rounded&quot;:0};" parent="1" vertex="1">
          <mxGeometry x="430" y="88" width="100" height="660" as="geometry" />
        </mxCell>
        <mxCell id="c6Jfyy14F-gJlhO8VcOm-15" value="" style="html=1;points=[];perimeter=orthogonalPerimeter;outlineConnect=0;targetShapes=umlLifeline;portConstraint=eastwest;newEdgeStyle={&quot;edgeStyle&quot;:&quot;elbowEdgeStyle&quot;,&quot;elbow&quot;:&quot;vertical&quot;,&quot;curved&quot;:0,&quot;rounded&quot;:0};" parent="c6Jfyy14F-gJlhO8VcOm-7" vertex="1">
          <mxGeometry x="45" y="80" width="10" height="40" as="geometry" />
        </mxCell>
        <mxCell id="c6Jfyy14F-gJlhO8VcOm-32" value="" style="html=1;points=[];perimeter=orthogonalPerimeter;outlineConnect=0;targetShapes=umlLifeline;portConstraint=eastwest;newEdgeStyle={&quot;edgeStyle&quot;:&quot;elbowEdgeStyle&quot;,&quot;elbow&quot;:&quot;vertical&quot;,&quot;curved&quot;:0,&quot;rounded&quot;:0};" parent="c6Jfyy14F-gJlhO8VcOm-7" vertex="1">
          <mxGeometry x="45" y="163" width="10" height="37" as="geometry" />
        </mxCell>
        <mxCell id="c6Jfyy14F-gJlhO8VcOm-39" value="" style="html=1;points=[];perimeter=orthogonalPerimeter;outlineConnect=0;targetShapes=umlLifeline;portConstraint=eastwest;newEdgeStyle={&quot;edgeStyle&quot;:&quot;elbowEdgeStyle&quot;,&quot;elbow&quot;:&quot;vertical&quot;,&quot;curved&quot;:0,&quot;rounded&quot;:0};" parent="c6Jfyy14F-gJlhO8VcOm-7" vertex="1">
          <mxGeometry x="45" y="282" width="10" height="37" as="geometry" />
        </mxCell>
        <mxCell id="jyaCsx6w0gXDUQzpRsYH-12" value="" style="html=1;points=[];perimeter=orthogonalPerimeter;outlineConnect=0;targetShapes=umlLifeline;portConstraint=eastwest;newEdgeStyle={&quot;edgeStyle&quot;:&quot;elbowEdgeStyle&quot;,&quot;elbow&quot;:&quot;vertical&quot;,&quot;curved&quot;:0,&quot;rounded&quot;:0};" parent="c6Jfyy14F-gJlhO8VcOm-7" vertex="1">
          <mxGeometry x="45" y="372" width="10" height="37" as="geometry" />
        </mxCell>
        <mxCell id="c6Jfyy14F-gJlhO8VcOm-57" value="" style="html=1;points=[];perimeter=orthogonalPerimeter;outlineConnect=0;targetShapes=umlLifeline;portConstraint=eastwest;newEdgeStyle={&quot;edgeStyle&quot;:&quot;elbowEdgeStyle&quot;,&quot;elbow&quot;:&quot;vertical&quot;,&quot;curved&quot;:0,&quot;rounded&quot;:0};" parent="c6Jfyy14F-gJlhO8VcOm-7" vertex="1">
          <mxGeometry x="45" y="462" width="10" height="37" as="geometry" />
        </mxCell>
        <mxCell id="c6Jfyy14F-gJlhO8VcOm-64" value="" style="html=1;points=[];perimeter=orthogonalPerimeter;outlineConnect=0;targetShapes=umlLifeline;portConstraint=eastwest;newEdgeStyle={&quot;edgeStyle&quot;:&quot;elbowEdgeStyle&quot;,&quot;elbow&quot;:&quot;vertical&quot;,&quot;curved&quot;:0,&quot;rounded&quot;:0};" parent="c6Jfyy14F-gJlhO8VcOm-7" vertex="1">
          <mxGeometry x="45" y="572" width="10" height="46" as="geometry" />
        </mxCell>
        <mxCell id="c6Jfyy14F-gJlhO8VcOm-8" value="Bank" style="shape=umlLifeline;perimeter=lifelinePerimeter;whiteSpace=wrap;html=1;container=1;dropTarget=0;collapsible=0;recursiveResize=0;outlineConnect=0;portConstraint=eastwest;newEdgeStyle={&quot;edgeStyle&quot;:&quot;elbowEdgeStyle&quot;,&quot;elbow&quot;:&quot;vertical&quot;,&quot;curved&quot;:0,&quot;rounded&quot;:0};" parent="1" vertex="1">
          <mxGeometry x="590" y="100" width="100" height="660" as="geometry" />
        </mxCell>
        <mxCell id="c6Jfyy14F-gJlhO8VcOm-70" value="" style="html=1;points=[];perimeter=orthogonalPerimeter;outlineConnect=0;targetShapes=umlLifeline;portConstraint=eastwest;newEdgeStyle={&quot;edgeStyle&quot;:&quot;elbowEdgeStyle&quot;,&quot;elbow&quot;:&quot;vertical&quot;,&quot;curved&quot;:0,&quot;rounded&quot;:0};" parent="c6Jfyy14F-gJlhO8VcOm-8" vertex="1">
          <mxGeometry x="45" y="574" width="10" height="37" as="geometry" />
        </mxCell>
        <mxCell id="c6Jfyy14F-gJlhO8VcOm-71" value="Payment with &lt;br&gt;valid credentials" style="html=1;verticalAlign=bottom;endArrow=block;edgeStyle=elbowEdgeStyle;elbow=vertical;curved=0;rounded=0;" parent="c6Jfyy14F-gJlhO8VcOm-8" target="c6Jfyy14F-gJlhO8VcOm-70" edge="1">
          <mxGeometry width="80" relative="1" as="geometry">
            <mxPoint x="-75" y="575" as="sourcePoint" />
            <mxPoint x="55" y="575" as="targetPoint" />
            <Array as="points">
              <mxPoint x="35" y="575" />
            </Array>
          </mxGeometry>
        </mxCell>
        <mxCell id="c6Jfyy14F-gJlhO8VcOm-10" value="" style="shape=umlLifeline;perimeter=lifelinePerimeter;whiteSpace=wrap;html=1;container=1;dropTarget=0;collapsible=0;recursiveResize=0;outlineConnect=0;portConstraint=eastwest;newEdgeStyle={&quot;edgeStyle&quot;:&quot;elbowEdgeStyle&quot;,&quot;elbow&quot;:&quot;vertical&quot;,&quot;curved&quot;:0,&quot;rounded&quot;:0};participant=umlActor;size=40;" parent="1" vertex="1">
          <mxGeometry x="150" y="100" width="20" height="660" as="geometry" />
        </mxCell>
        <mxCell id="c6Jfyy14F-gJlhO8VcOm-11" value="" style="html=1;points=[];perimeter=orthogonalPerimeter;outlineConnect=0;targetShapes=umlLifeline;portConstraint=eastwest;newEdgeStyle={&quot;edgeStyle&quot;:&quot;elbowEdgeStyle&quot;,&quot;elbow&quot;:&quot;vertical&quot;,&quot;curved&quot;:0,&quot;rounded&quot;:0};" parent="c6Jfyy14F-gJlhO8VcOm-10" vertex="1">
          <mxGeometry y="65" width="10" height="595" as="geometry" />
        </mxCell>
        <mxCell id="c6Jfyy14F-gJlhO8VcOm-12" value="USER" style="text;strokeColor=none;align=center;fillColor=none;html=1;verticalAlign=middle;whiteSpace=wrap;rounded=0;" parent="1" vertex="1">
          <mxGeometry x="130" y="64" width="60" height="30" as="geometry" />
        </mxCell>
        <mxCell id="c6Jfyy14F-gJlhO8VcOm-13" value="Register" style="html=1;verticalAlign=bottom;endArrow=block;edgeStyle=elbowEdgeStyle;elbow=vertical;curved=0;rounded=0;" parent="1" edge="1">
          <mxGeometry width="80" relative="1" as="geometry">
            <mxPoint x="165" y="161" as="sourcePoint" />
            <mxPoint x="245" y="161.2" as="targetPoint" />
          </mxGeometry>
        </mxCell>
        <mxCell id="c6Jfyy14F-gJlhO8VcOm-16" value="Validating and inserting&lt;br&gt;user credentials" style="html=1;verticalAlign=bottom;endArrow=block;edgeStyle=elbowEdgeStyle;elbow=vertical;curved=0;rounded=0;" parent="1" target="c6Jfyy14F-gJlhO8VcOm-7" edge="1">
          <mxGeometry width="80" relative="1" as="geometry">
            <mxPoint x="255" y="181" as="sourcePoint" />
            <mxPoint x="385" y="181" as="targetPoint" />
            <Array as="points">
              <mxPoint x="365" y="181" />
            </Array>
          </mxGeometry>
        </mxCell>
        <mxCell id="c6Jfyy14F-gJlhO8VcOm-37" value="&lt;font style=&quot;font-size: 11px;&quot;&gt;Registration Success,&lt;br style=&quot;border-color: var(--border-color); background-color: rgb(251, 251, 251);&quot;&gt;&lt;span style=&quot;background-color: rgb(251, 251, 251);&quot;&gt;Redirect to login&lt;/span&gt;&lt;/font&gt;" style="html=1;verticalAlign=bottom;endArrow=block;edgeStyle=elbowEdgeStyle;elbow=vertical;curved=0;rounded=0;dashed=1;" parent="1" edge="1">
          <mxGeometry width="80" relative="1" as="geometry">
            <mxPoint x="270" y="220" as="sourcePoint" />
            <mxPoint x="150" y="220" as="targetPoint" />
            <Array as="points">
              <mxPoint x="480" y="220" />
            </Array>
          </mxGeometry>
        </mxCell>
        <mxCell id="c6Jfyy14F-gJlhO8VcOm-36" value="&lt;font style=&quot;font-size: 11px;&quot;&gt;Login Success,&lt;br&gt;Redirect to login&lt;/font&gt;" style="text;strokeColor=none;align=center;fillColor=none;html=1;verticalAlign=middle;whiteSpace=wrap;rounded=0;" parent="1" vertex="1">
          <mxGeometry x="274" y="267" width="95" height="30" as="geometry" />
        </mxCell>
        <mxCell id="jyaCsx6w0gXDUQzpRsYH-6" value="" style="edgeStyle=orthogonalEdgeStyle;rounded=0;orthogonalLoop=1;jettySize=auto;html=1;" parent="1" target="c6Jfyy14F-gJlhO8VcOm-36" edge="1">
          <mxGeometry relative="1" as="geometry">
            <mxPoint x="322.5" y="356" as="sourcePoint" />
          </mxGeometry>
        </mxCell>
        <mxCell id="c6Jfyy14F-gJlhO8VcOm-65" value="" style="html=1;points=[];perimeter=orthogonalPerimeter;outlineConnect=0;targetShapes=umlLifeline;portConstraint=eastwest;newEdgeStyle={&quot;edgeStyle&quot;:&quot;elbowEdgeStyle&quot;,&quot;elbow&quot;:&quot;vertical&quot;,&quot;curved&quot;:0,&quot;rounded&quot;:0};" parent="1" vertex="1">
          <mxGeometry x="245" y="657" width="10" height="53" as="geometry" />
        </mxCell>
        <mxCell id="c6Jfyy14F-gJlhO8VcOm-66" value="Service &lt;br&gt;Payment" style="html=1;verticalAlign=bottom;endArrow=block;edgeStyle=elbowEdgeStyle;elbow=vertical;curved=0;rounded=0;" parent="1" edge="1">
          <mxGeometry width="80" relative="1" as="geometry">
            <mxPoint x="165" y="658" as="sourcePoint" />
            <mxPoint x="245" y="658.2" as="targetPoint" />
          </mxGeometry>
        </mxCell>
        <mxCell id="c6Jfyy14F-gJlhO8VcOm-67" value="Add and Verify details" style="html=1;verticalAlign=bottom;endArrow=block;edgeStyle=elbowEdgeStyle;elbow=vertical;curved=0;rounded=0;" parent="1" target="c6Jfyy14F-gJlhO8VcOm-7" edge="1">
          <mxGeometry width="80" relative="1" as="geometry">
            <mxPoint x="255" y="665" as="sourcePoint" />
            <mxPoint x="385" y="665" as="targetPoint" />
            <Array as="points">
              <mxPoint x="365" y="665" />
            </Array>
          </mxGeometry>
        </mxCell>
        <mxCell id="c6Jfyy14F-gJlhO8VcOm-68" value="" style="endArrow=blockThin;dashed=1;endFill=1;endSize=12;html=1;rounded=0;" parent="1" source="c6Jfyy14F-gJlhO8VcOm-7" edge="1">
          <mxGeometry width="160" relative="1" as="geometry">
            <mxPoint x="385" y="710" as="sourcePoint" />
            <mxPoint x="165" y="710" as="targetPoint" />
          </mxGeometry>
        </mxCell>
        <mxCell id="c6Jfyy14F-gJlhO8VcOm-69" value="&lt;span style=&quot;font-size: 11px;&quot;&gt;Payment Successfull&lt;/span&gt;" style="text;strokeColor=none;align=center;fillColor=none;html=1;verticalAlign=middle;whiteSpace=wrap;rounded=0;" parent="1" vertex="1">
          <mxGeometry x="264" y="685" width="110" height="30" as="geometry" />
        </mxCell>
        <mxCell id="c6Jfyy14F-gJlhO8VcOm-73" value="" style="endArrow=blockThin;dashed=1;endFill=1;endSize=12;html=1;rounded=0;" parent="1" edge="1">
          <mxGeometry width="160" relative="1" as="geometry">
            <mxPoint x="630" y="699.5" as="sourcePoint" />
            <mxPoint x="510" y="699.5" as="targetPoint" />
          </mxGeometry>
        </mxCell>
        <mxCell id="c6Jfyy14F-gJlhO8VcOm-72" value="&lt;span style=&quot;font-size: 11px;&quot;&gt;Add payment acknowledgement&lt;/span&gt;" style="text;strokeColor=none;align=center;fillColor=none;html=1;verticalAlign=middle;whiteSpace=wrap;rounded=0;" parent="1" vertex="1">
          <mxGeometry x="405" y="718" width="110" height="30" as="geometry" />
        </mxCell>
        <mxCell id="jyaCsx6w0gXDUQzpRsYH-7" value="" style="html=1;points=[];perimeter=orthogonalPerimeter;outlineConnect=0;targetShapes=umlLifeline;portConstraint=eastwest;newEdgeStyle={&quot;edgeStyle&quot;:&quot;elbowEdgeStyle&quot;,&quot;elbow&quot;:&quot;vertical&quot;,&quot;curved&quot;:0,&quot;rounded&quot;:0};" parent="1" vertex="1">
          <mxGeometry x="250" y="370" width="10" height="44" as="geometry" />
        </mxCell>
        <mxCell id="jyaCsx6w0gXDUQzpRsYH-8" value="Browse facilities" style="html=1;verticalAlign=bottom;endArrow=block;edgeStyle=elbowEdgeStyle;elbow=vertical;curved=0;rounded=0;" parent="1" edge="1">
          <mxGeometry width="80" relative="1" as="geometry">
            <mxPoint x="170" y="371" as="sourcePoint" />
            <mxPoint x="250" y="371.2" as="targetPoint" />
          </mxGeometry>
        </mxCell>
        <mxCell id="jyaCsx6w0gXDUQzpRsYH-9" value="select facility" style="html=1;verticalAlign=bottom;endArrow=block;edgeStyle=elbowEdgeStyle;elbow=vertical;curved=0;rounded=0;" parent="1" target="c6Jfyy14F-gJlhO8VcOm-7" edge="1">
          <mxGeometry width="80" relative="1" as="geometry">
            <mxPoint x="260" y="378" as="sourcePoint" />
            <mxPoint x="390" y="378" as="targetPoint" />
            <Array as="points">
              <mxPoint x="370" y="378" />
            </Array>
          </mxGeometry>
        </mxCell>
        <mxCell id="jyaCsx6w0gXDUQzpRsYH-10" value="" style="endArrow=blockThin;dashed=1;endFill=1;endSize=12;html=1;rounded=0;" parent="1" source="c6Jfyy14F-gJlhO8VcOm-7" edge="1">
          <mxGeometry width="160" relative="1" as="geometry">
            <mxPoint x="390" y="414" as="sourcePoint" />
            <mxPoint x="170" y="414" as="targetPoint" />
          </mxGeometry>
        </mxCell>
        <mxCell id="jyaCsx6w0gXDUQzpRsYH-11" value="&lt;span style=&quot;font-size: 11px;&quot;&gt;book facility&lt;/span&gt;" style="text;strokeColor=none;align=center;fillColor=none;html=1;verticalAlign=middle;whiteSpace=wrap;rounded=0;" parent="1" vertex="1">
          <mxGeometry x="280" y="388" width="95" height="30" as="geometry" />
        </mxCell>
        <mxCell id="jyaCsx6w0gXDUQzpRsYH-13" value="" style="html=1;points=[];perimeter=orthogonalPerimeter;outlineConnect=0;targetShapes=umlLifeline;portConstraint=eastwest;newEdgeStyle={&quot;edgeStyle&quot;:&quot;elbowEdgeStyle&quot;,&quot;elbow&quot;:&quot;vertical&quot;,&quot;curved&quot;:0,&quot;rounded&quot;:0};" parent="1" vertex="1">
          <mxGeometry x="245" y="440" width="10" height="44" as="geometry" />
        </mxCell>
        <mxCell id="jyaCsx6w0gXDUQzpRsYH-14" value="&lt;br&gt;Register fitness &lt;br&gt;center" style="html=1;verticalAlign=bottom;endArrow=block;edgeStyle=elbowEdgeStyle;elbow=vertical;curved=0;rounded=0;" parent="1" edge="1">
          <mxGeometry width="80" relative="1" as="geometry">
            <mxPoint x="165" y="441" as="sourcePoint" />
            <mxPoint x="245" y="441.2" as="targetPoint" />
          </mxGeometry>
        </mxCell>
        <mxCell id="jyaCsx6w0gXDUQzpRsYH-15" value="Update data&amp;nbsp;" style="html=1;verticalAlign=bottom;endArrow=block;edgeStyle=elbowEdgeStyle;elbow=vertical;curved=0;rounded=0;" parent="1" target="c6Jfyy14F-gJlhO8VcOm-7" edge="1">
          <mxGeometry width="80" relative="1" as="geometry">
            <mxPoint x="255" y="448" as="sourcePoint" />
            <mxPoint x="385" y="448" as="targetPoint" />
            <Array as="points">
              <mxPoint x="365" y="448" />
            </Array>
          </mxGeometry>
        </mxCell>
        <mxCell id="jyaCsx6w0gXDUQzpRsYH-16" value="" style="endArrow=blockThin;dashed=1;endFill=1;endSize=12;html=1;rounded=0;" parent="1" source="c6Jfyy14F-gJlhO8VcOm-7" edge="1">
          <mxGeometry width="160" relative="1" as="geometry">
            <mxPoint x="385" y="484" as="sourcePoint" />
            <mxPoint x="165" y="484" as="targetPoint" />
          </mxGeometry>
        </mxCell>
        <mxCell id="jyaCsx6w0gXDUQzpRsYH-17" value="&lt;span style=&quot;font-size: 11px;&quot;&gt;regitration susesful&lt;/span&gt;" style="text;strokeColor=none;align=center;fillColor=none;html=1;verticalAlign=middle;whiteSpace=wrap;rounded=0;" parent="1" vertex="1">
          <mxGeometry x="260" y="454" width="110" height="30" as="geometry" />
        </mxCell>
      </root>
    </mxGraphModel>
  </diagram>
</mxfile>
